<?xml version='1.0' encoding='UTF-8' standalone='no'?>
<svg height="432pt" xmlns="http://www.w3.org/2000/svg" width="576pt" viewBox="0 0 576 432" xmlns:xlink="http://www.w3.org/1999/xlink">
 <title>gl2ps_renderer figure</title>
 <desc>
Creator: GL2PS 1.4.0, (C) 1999-2017 C. Geuzaine
For: Octave
CreationDate: Mon Feb 10 16:17:39 2020
</desc>
 <defs/>
 <polygon fill="#ffffff" points="0,0 576,0 576,432 0,432"/>
 <g>
  <polygon fill="#ffffff" points="0,432 576,432 576,0 0,0" shape-rendering="crispEdges"/>
  <clipPath id="cp00576432">
   <polygon points="0,432 576,432 576,0 0,0"/>
  </clipPath>
  <g clip-path="url(#cp00576432)">
   <polygon fill="#ffffff" points="74.88,384.48 521.28,384.48 521.28,32.4 74.88,32.4" shape-rendering="crispEdges"/>
   <polyline stroke-linejoin="miter" fill="none" stroke-width="0.5" points="74.88,384.48 74.88,380.015" stroke="#262626" stroke-linecap="butt"/>
   <polyline stroke-linejoin="miter" fill="none" stroke-width="0.5" points="74.88,32.4 74.88,36.865" stroke="#262626" stroke-linecap="butt"/>
   <polyline stroke-linejoin="miter" fill="none" stroke-width="0.5" points="186.48,384.48 186.48,380.015" stroke="#262626" stroke-linecap="butt"/>
   <polyline stroke-linejoin="miter" fill="none" stroke-width="0.5" points="186.48,32.4 186.48,36.865" stroke="#262626" stroke-linecap="butt"/>
   <polyline stroke-linejoin="miter" fill="none" stroke-width="0.5" points="298.08,384.48 298.08,380.015" stroke="#262626" stroke-linecap="butt"/>
   <polyline stroke-linejoin="miter" fill="none" stroke-width="0.5" points="298.08,32.4 298.08,36.865" stroke="#262626" stroke-linecap="butt"/>
   <polyline stroke-linejoin="miter" fill="none" stroke-width="0.5" points="409.68,384.48 409.68,380.015" stroke="#262626" stroke-linecap="butt"/>
   <polyline stroke-linejoin="miter" fill="none" stroke-width="0.5" points="409.68,32.4 409.68,36.865" stroke="#262626" stroke-linecap="butt"/>
   <polyline stroke-linejoin="miter" fill="none" stroke-width="0.5" points="521.28,384.48 521.28,380.015" stroke="#262626" stroke-linecap="butt"/>
   <polyline stroke-linejoin="miter" fill="none" stroke-width="0.5" points="521.28,32.4 521.28,36.865" stroke="#262626" stroke-linecap="butt"/>
   <text transform="translate(71.88,399.982) rotate(-0,3,-8)" font-size="10" font-style="normal" font-family="FreeSans" font-weight="normal" xml:space="preserve">
    <tspan fill="rgb(38,38,38)" y="-0" x="0 ">0</tspan>
   </text>
   <text transform="translate(180.48,399.982) rotate(-0,6,-8)" font-size="10" font-style="normal" font-family="FreeSans" font-weight="normal" xml:space="preserve">
    <tspan fill="rgb(38,38,38)" y="-0" x="0 6 ">50</tspan>
   </text>
   <text transform="translate(289.08,399.982) rotate(-0,9,-8)" font-size="10" font-style="normal" font-family="FreeSans" font-weight="normal" xml:space="preserve">
    <tspan fill="rgb(38,38,38)" y="-0" x="0 6 12 ">100</tspan>
   </text>
   <text transform="translate(400.68,399.982) rotate(-0,9,-8)" font-size="10" font-style="normal" font-family="FreeSans" font-weight="normal" xml:space="preserve">
    <tspan fill="rgb(38,38,38)" y="-0" x="0 6 12 ">150</tspan>
   </text>
   <text transform="translate(512.28,399.982) rotate(-0,9,-8)" font-size="10" font-style="normal" font-family="FreeSans" font-weight="normal" xml:space="preserve">
    <tspan fill="rgb(38,38,38)" y="-0" x="0 6 12 ">200</tspan>
   </text>
   <polyline stroke-linejoin="miter" fill="none" stroke-width="0.5" points="74.88,384.48 79.348,384.48" stroke="#262626" stroke-linecap="butt"/>
   <polyline stroke-linejoin="miter" fill="none" stroke-width="0.5" points="521.28,384.48 516.812,384.48" stroke="#262626" stroke-linecap="butt"/>
   <polyline stroke-linejoin="miter" fill="none" stroke-width="0.5" points="74.88,325.8 79.348,325.8" stroke="#262626" stroke-linecap="butt"/>
   <polyline stroke-linejoin="miter" fill="none" stroke-width="0.5" points="521.28,325.8 516.812,325.8" stroke="#262626" stroke-linecap="butt"/>
   <polyline stroke-linejoin="miter" fill="none" stroke-width="0.5" points="74.88,267.12 79.348,267.12" stroke="#262626" stroke-linecap="butt"/>
   <polyline stroke-linejoin="miter" fill="none" stroke-width="0.5" points="521.28,267.12 516.812,267.12" stroke="#262626" stroke-linecap="butt"/>
   <polyline stroke-linejoin="miter" fill="none" stroke-width="0.5" points="74.88,208.44 79.348,208.44" stroke="#262626" stroke-linecap="butt"/>
   <polyline stroke-linejoin="miter" fill="none" stroke-width="0.5" points="521.28,208.44 516.812,208.44" stroke="#262626" stroke-linecap="butt"/>
   <polyline stroke-linejoin="miter" fill="none" stroke-width="0.5" points="74.88,149.76 79.348,149.76" stroke="#262626" stroke-linecap="butt"/>
   <polyline stroke-linejoin="miter" fill="none" stroke-width="0.5" points="521.28,149.76 516.812,149.76" stroke="#262626" stroke-linecap="butt"/>
   <polyline stroke-linejoin="miter" fill="none" stroke-width="0.5" points="74.88,91.08 79.348,91.08" stroke="#262626" stroke-linecap="butt"/>
   <polyline stroke-linejoin="miter" fill="none" stroke-width="0.5" points="521.28,91.08 516.812,91.08" stroke="#262626" stroke-linecap="butt"/>
   <polyline stroke-linejoin="miter" fill="none" stroke-width="0.5" points="74.88,32.4 79.348,32.4" stroke="#262626" stroke-linecap="butt"/>
   <polyline stroke-linejoin="miter" fill="none" stroke-width="0.5" points="521.28,32.4 516.812,32.4" stroke="#262626" stroke-linecap="butt"/>
   <text transform="translate(63.8755,388.48) rotate(-0,6,-4)" font-size="10" font-style="normal" font-family="FreeSans" font-weight="normal" xml:space="preserve">
    <tspan fill="rgb(38,38,38)" y="-0" x="0 ">0</tspan>
   </text>
   <text transform="translate(63.8755,329.8) rotate(-0,6,-4)" font-size="10" font-style="normal" font-family="FreeSans" font-weight="normal" xml:space="preserve">
    <tspan fill="rgb(38,38,38)" y="-0" x="0 ">1</tspan>
   </text>
   <text transform="translate(63.8755,271.12) rotate(-0,6,-4)" font-size="10" font-style="normal" font-family="FreeSans" font-weight="normal" xml:space="preserve">
    <tspan fill="rgb(38,38,38)" y="-0" x="0 ">2</tspan>
   </text>
   <text transform="translate(63.8755,212.44) rotate(-0,6,-4)" font-size="10" font-style="normal" font-family="FreeSans" font-weight="normal" xml:space="preserve">
    <tspan fill="rgb(38,38,38)" y="-0" x="0 ">3</tspan>
   </text>
   <text transform="translate(63.8755,153.76) rotate(-0,6,-4)" font-size="10" font-style="normal" font-family="FreeSans" font-weight="normal" xml:space="preserve">
    <tspan fill="rgb(38,38,38)" y="-0" x="0 ">4</tspan>
   </text>
   <text transform="translate(63.8755,95.08) rotate(-0,6,-4)" font-size="10" font-style="normal" font-family="FreeSans" font-weight="normal" xml:space="preserve">
    <tspan fill="rgb(38,38,38)" y="-0" x="0 ">5</tspan>
   </text>
   <text transform="translate(63.8755,36.4) rotate(-0,6,-4)" font-size="10" font-style="normal" font-family="FreeSans" font-weight="normal" xml:space="preserve">
    <tspan fill="rgb(38,38,38)" y="-0" x="0 ">6</tspan>
   </text>
   <polyline stroke-linejoin="miter" fill="none" stroke-width="0.5" points="74.88,384.48 521.28,384.48" stroke="#262626" stroke-dasharray="16,0" stroke-linecap="square"/>
   <polyline stroke-linejoin="miter" fill="none" stroke-width="0.5" points="74.88,32.4 521.28,32.4" stroke="#262626" stroke-dasharray="16,0" stroke-linecap="square"/>
   <polyline stroke-linejoin="miter" fill="none" stroke-width="0.5" points="74.88,384.48 74.88,32.4" stroke="#262626" stroke-dasharray="16,0" stroke-linecap="square"/>
   <polyline stroke-linejoin="miter" fill="none" stroke-width="0.5" points="521.28,384.48 521.28,32.4" stroke="#262626" stroke-dasharray="16,0" stroke-linecap="square"/>
   <text transform="translate(254.08,416.982) rotate(-0,44,-12)" font-size="11" font-style="normal" font-family="FreeSans" font-weight="normal" xml:space="preserve">
    <tspan fill="rgb(38,38,38)" y="-3" x="0 7 9 18 24 27 31 33 39 42 49 55 61 67 73 79 84 ">Time (in Seconds)</tspan>
   </text>
   <text transform="translate(-61.6245,208.44) rotate(-90,120.5,0)" font-size="11" font-style="normal" font-family="FreeSans" font-weight="normal" xml:space="preserve">
    <tspan fill="rgb(38,38,38)" y="-1" x="0 7 11 15 21 25 28 34 40 43 51 57 63 69 72 75 81 87 90 99 105 111 116 122 126 132 138 141 147 153 159 162 168 173 176 178 187 193 196 202 208 211 216 222 224 230 236 ">Error between the measured and estimated values</tspan>
   </text>
   <text transform="translate(225.08,22.4) rotate(-0,73,0)" font-size="11" font-style="normal" font-family="FreeSans" font-weight="bold" xml:space="preserve">
    <tspan fill="rgb(0,0,0)" y="-3" x="0 7 14 20 23 27 30 37 44 47 54 58 62 69 73 76 84 91 98 104 110 114 121 127 134 140 ">Position Error Convergence</tspan>
   </text>
   <polyline stroke-linejoin="round" fill="none" stroke-width="0.5" points="77.112,85.3616 79.344,291.573 81.576,378.406 83.808,379.473 86.04,380.475 88.272,381.024 90.504,381.57 92.736,381.888 94.968,382.071 97.2,382.256 99.432,382.552 101.664,382.576 103.896,382.85 106.128,382.954 108.36,382.931 110.592,383.122 112.824,383.387 115.056,383.288 117.288,383.372 119.52,383.466 121.752,383.557 123.984,383.566 126.216,383.732 128.448,383.799 130.68,383.627 132.912,383.767 135.144,383.924 137.376,383.673 139.608,383.925 141.84,383.997 144.072,383.833 146.304,383.862 148.536,383.929 150.768,384.03 153,383.953 155.232,383.88 157.464,383.969 159.696,383.856 161.928,383.923 164.16,383.943 166.392,384.043 168.624,383.842 170.856,384.039 173.088,383.98 175.32,383.842 177.552,383.829 179.784,384.033 182.016,383.911 184.248,383.956 186.48,383.812 188.712,384.021 190.944,383.894 193.176,383.98 195.408,383.907 197.64,383.991 199.872,383.981 202.104,383.83 204.336,384.063 206.568,383.855 208.8,384.096 211.032,383.921 213.264,383.969 215.496,384.162 217.728,383.948 219.96,383.965 222.192,383.971 224.424,384.026 226.656,384.117 228.888,384.078 231.12,384.065 233.352,384.127 235.584,384.057 237.816,384.026 240.048,384.13 242.28,384.095 244.512,384.169 246.744,384.057 248.976,384.087 251.208,384.045 253.44,384.077 255.672,384.192 257.904,384.011 260.136,384.104 262.368,384.068 264.6,384.151 266.832,384.027 269.064,384.205 271.296,384.071 273.528,384.034 275.76,384.165 277.992,383.989 280.224,384.071 282.456,384.071 284.688,384.017 286.92,384.119 289.152,383.964 291.384,383.962 293.616,384.202 295.848,383.994 298.08,383.981 300.312,383.979 302.544,384.041 304.776,384.042 307.008,383.994 309.24,384.06 311.472,383.889 313.704,383.884 315.936,384.089 318.168,383.943 320.4,384.138 322.632,384.005 324.864,384.043 327.096,384.032 329.328,384.021 331.56,383.886 333.792,384.028 336.024,383.938 338.256,384.003 340.488,383.904 342.72,384.055 344.952,384.061 347.184,383.951 349.416,383.912 351.648,384.103 353.88,384.073 356.112,383.952 358.344,383.968 360.576,384.135 362.808,383.888 365.04,384.212 367.272,383.899 369.504,384.197 371.736,383.889 373.968,383.993 376.2,384.123 378.432,383.968 380.664,384.044 382.896,384.06 385.128,384.063 387.36,383.96 389.592,384.099 391.824,384.045 394.056,384.001 396.288,384.257 398.52,384.012 400.752,383.966 402.984,384.128 405.216,384.262 407.448,383.863 409.68,384.05" stroke="#0071bc" stroke-linecap="butt"/>
  </g>
  <clipPath id="cp00576432">
   <polygon points="0,432 576,432 576,0 0,0"/>
  </clipPath>
  <g clip-path="url(#cp00576432)">
   <polygon fill="#ffffff" points="381.34,58.1362 510.294,58.1362 510.294,43.386 381.34,43.386" shape-rendering="crispEdges"/>
   <polyline stroke-linejoin="miter" fill="none" stroke-width="0.5" points="381.34,58.1362 510.294,58.1362" stroke="#262626" stroke-dasharray="16,0" stroke-linecap="square"/>
   <polyline stroke-linejoin="miter" fill="none" stroke-width="0.5" points="381.34,43.386 510.294,43.386" stroke="#262626" stroke-dasharray="16,0" stroke-linecap="square"/>
   <polyline stroke-linejoin="miter" fill="none" stroke-width="0.5" points="381.34,58.1362 381.34,43.386" stroke="#262626" stroke-dasharray="16,0" stroke-linecap="square"/>
   <polyline stroke-linejoin="miter" fill="none" stroke-width="0.5" points="510.294,58.1362 510.294,43.386" stroke="#262626" stroke-dasharray="16,0" stroke-linecap="square"/>
   <text transform="translate(408.347,55.2611) rotate(-0,-0,-4.5)" font-size="9" font-style="normal" font-family="FreeSans" font-weight="normal" xml:space="preserve">
    <tspan fill="rgb(0,0,0)" y="-1" x="0 6 10 13 15 22 27 30 35 40 42 48 53 57 59 62 64 69 74 76 82 85 88 93 ">Estimated Position Error</tspan>
   </text>
   <polyline stroke-linejoin="round" fill="none" stroke-width="0.5" points="384.544,50.7611 405.143,50.7611" stroke="#0071bc" stroke-linecap="butt"/>
  </g>
 </g>
</svg>
